<?xml version="1.0" encoding="utf-8"?>
<!-- Generator: Adobe Illustrator 18.1.1, SVG Export Plug-In . SVG Version: 6.00 Build 0)  -->
<svg version="1.1" id="Layer_1" xmlns="http://www.w3.org/2000/svg" xmlns:xlink="http://www.w3.org/1999/xlink" x="0px" y="0px"
	 viewBox="0 0 144 144" enable-background="new 0 0 144 144" xml:space="preserve">
<rect fill="#DB3E3E" width="144" height="144"/>
<g>
	<path fill="#FFFFFF" d="M118,70.1c-1.3,0.3-2.6,0.5-4,0.5c-7.4,0-13.6-5.3-15.1-12.3c-0.1,0-0.2,0-0.3,0c-8.5,0-15.4-6.9-15.4-15.4
		c-8.5,0-15.4-6.9-15.4-15.4c0-0.4,0-0.8,0-1.2c-23.4,2.1-41.7,21.8-41.7,45.8c0,25.4,20.5,46,45.9,46s45.9-20.6,45.9-46
		C118.1,71.5,118.1,70.8,118,70.1z M46.1,77.7c-2,0-3.7-1.6-3.7-3.7c0-2,1.6-3.7,3.7-3.7c2,0,3.7,1.6,3.7,3.7
		C49.8,76,48.1,77.7,46.1,77.7z M50.8,57.4c0-2,1.6-3.7,3.7-3.7c2,0,3.7,1.6,3.7,3.7c0,2-1.6,3.7-3.7,3.7
		C52.4,61.1,50.8,59.5,50.8,57.4z M58.5,99.6c-2,0-3.7-1.6-3.7-3.7c0-2,1.6-3.7,3.7-3.7c2,0,3.7,1.6,3.7,3.7
		C62.2,97.9,60.6,99.6,58.5,99.6z M65.9,77.7c-2,0-3.7-1.6-3.7-3.7c0-2,1.6-3.7,3.7-3.7c2,0,3.7,1.6,3.7,3.7
		C69.6,76,67.9,77.7,65.9,77.7z M68.5,55c0-2,1.6-3.7,3.7-3.7s3.7,1.6,3.7,3.7c0,2-1.6,3.7-3.7,3.7C70.2,58.7,68.5,57,68.5,55z
		 M76.9,94.4c-2,0-3.7-1.6-3.7-3.7c0-2,1.6-3.7,3.7-3.7s3.7,1.6,3.7,3.7C80.6,92.8,78.9,94.4,76.9,94.4z M85.9,78.7
		c-2,0-3.7-1.6-3.7-3.7c0-2,1.6-3.7,3.7-3.7c2,0,3.7,1.6,3.7,3.7C89.5,77,87.9,78.7,85.9,78.7z M97.9,92.2c-2,0-3.7-1.6-3.7-3.7
		c0-2,1.6-3.7,3.7-3.7s3.7,1.6,3.7,3.7S99.9,92.2,97.9,92.2z"/>
</g>
</svg>
