<?xml version="1.0" encoding="utf-8"?>
<!-- Generator: Adobe Illustrator 18.1.1, SVG Export Plug-In . SVG Version: 6.00 Build 0)  -->
<svg version="1.1" id="Layer_1" xmlns="http://www.w3.org/2000/svg" xmlns:xlink="http://www.w3.org/1999/xlink" x="0px" y="0px"
	 viewBox="0 0 144 144" enable-background="new 0 0 144 144" xml:space="preserve">
<rect fill="#DB3E3E" width="144" height="144"/>
<g>
	<g>
		<g>
			<g>
				<path fill="#FFFFFF" d="M44.5,89.8c-6.9,0-12.5,3.6-12.5,8v13.1c0,4.4,5.6,8,12.5,8s12.5-3.6,12.5-8V97.8
					C57,93.4,51.4,89.8,44.5,89.8z M44.5,104.5c-5.8,0-10.4-3-10.4-6.7c0-3.7,4.7-6.7,10.4-6.7s10.4,3,10.4,6.7
					C54.9,101.5,50.2,104.5,44.5,104.5z"/>
				<ellipse fill="#FFFFFF" cx="44.5" cy="97.8" rx="5.9" ry="3.8"/>
			</g>
			<g>
				<path fill="#FFFFFF" d="M72.1,89.8c-6.9,0-12.5,3.6-12.5,8v13.1c0,4.4,5.6,8,12.5,8s12.5-3.6,12.5-8V97.8
					C84.5,93.4,79,89.8,72.1,89.8z M72.1,104.5c-5.8,0-10.4-3-10.4-6.7c0-3.7,4.7-6.7,10.4-6.7s10.4,3,10.4,6.7
					C82.5,101.5,77.8,104.5,72.1,104.5z"/>
				<ellipse fill="#FFFFFF" cx="72.1" cy="94" rx="1.5" ry="0.9"/>
				<ellipse fill="#FFFFFF" cx="72.1" cy="100.1" rx="1.5" ry="0.9"/>
				<ellipse fill="#FFFFFF" cx="76.6" cy="97.1" rx="1.5" ry="0.9"/>
				<ellipse fill="#FFFFFF" cx="72" cy="97.1" rx="1.5" ry="0.9"/>
				<ellipse fill="#FFFFFF" cx="67.1" cy="97.1" rx="1.5" ry="0.9"/>
			</g>
		</g>
		<polygon fill="#FFFFFF" points="65,89.2 96.9,25.1 101.8,28.1 		"/>
		<polygon fill="#FFFFFF" points="67.1,89.4 108.9,31.1 113.2,34.9 		"/>
	</g>
</g>
</svg>
