<?xml version="1.0" encoding="utf-8"?>
<!-- Generator: Adobe Illustrator 18.1.1, SVG Export Plug-In . SVG Version: 6.00 Build 0)  -->
<svg version="1.1" id="Layer_1" xmlns="http://www.w3.org/2000/svg" xmlns:xlink="http://www.w3.org/1999/xlink" x="0px" y="0px"
	 viewBox="0 0 144 144" enable-background="new 0 0 144 144" xml:space="preserve">
<rect fill="#DB3E3E" width="144" height="144"/>
<g>
	<g>
		<path fill="#FFFFFF" d="M109.5,70.1H33.7c0,20.7,11.3,38.2,26.9,43.9h0v6.8h22.1V114h-0.2C98.1,108.3,109.5,90.8,109.5,70.1z"/>
		<path fill="#FFFFFF" d="M54.5,37.9c0.1,0.4,0.1,0.7,0.2,1.1c0.2,0.7,0.4,1.5,0.6,2.2c0.5,1.4,1.2,2.8,1.8,4.1
			c0.7,1.3,1.3,2.5,1.9,3.7c0.2,0.3,0.3,0.6,0.4,0.9c0.1,0.3,0.3,0.6,0.4,0.9c0.3,0.6,0.4,1.2,0.7,1.8c0.4,1.2,0.7,2.3,0.8,3.4
			c0.1,0.6,0.1,1.1,0.2,1.6c0,0.5,0,1.1,0,1.6c0,0.5,0,1-0.1,1.5c0,0.5-0.1,0.9-0.1,1.3c-0.1,0.8-0.2,1.6-0.3,2.2
			c-0.1,0.6-0.2,1.1-0.3,1.5c-0.1,0.3-0.1,0.5-0.1,0.5s0.1-0.2,0.3-0.4c0.2-0.3,0.5-0.7,0.8-1.2c0.2-0.3,0.3-0.6,0.5-0.9
			c0.2-0.3,0.4-0.7,0.5-1.2c0.2-0.4,0.3-0.9,0.5-1.4c0.2-0.5,0.3-1,0.5-1.6c0.1-0.6,0.2-1.1,0.3-1.7c0-0.3,0.1-0.6,0.1-0.9
			c0-0.3,0.1-0.6,0.1-1c0-1.3-0.1-2.7-0.4-4.2c-0.2-0.7-0.3-1.4-0.6-2.1c-0.2-0.7-0.5-1.4-0.8-2.1c-0.6-1.4-1.2-2.7-1.9-3.9
			c-0.6-1.3-1.2-2.5-1.7-3.7c-0.5-1.2-0.9-2.3-1.1-3.5c-0.2-1.1-0.3-2.3-0.2-3.4c0-0.3,0.1-0.5,0.1-0.8c0-0.3,0.1-0.5,0.1-0.8
			c0.1-0.3,0.1-0.5,0.2-0.8c0-0.1,0.1-0.3,0.1-0.4c0-0.1,0.1-0.2,0.1-0.4c0.1-0.5,0.2-1,0.4-1.4c0.2-0.4,0.3-0.9,0.4-1.3
			c0.3-0.8,0.6-1.5,0.8-2.1c0.3-0.6,0.4-1,0.6-1.3c0.1-0.3,0.2-0.5,0.2-0.5s-0.1,0.1-0.4,0.4c-0.2,0.2-0.6,0.6-1.1,1
			c-0.4,0.5-0.9,1.1-1.5,1.8c-0.3,0.4-0.5,0.8-0.8,1.2c-0.3,0.4-0.5,0.9-0.8,1.4c-0.1,0.1-0.1,0.2-0.2,0.4c-0.1,0.1-0.1,0.3-0.2,0.4
			c-0.1,0.3-0.2,0.6-0.4,0.8c-0.1,0.3-0.2,0.6-0.3,0.9c-0.1,0.3-0.2,0.6-0.3,1c-0.3,1.3-0.5,2.8-0.4,4.3
			C54.4,37.2,54.4,37.5,54.5,37.9z"/>
		<path fill="#FFFFFF" d="M66.2,37.9c0.1,0.4,0.1,0.7,0.2,1.1c0.2,0.7,0.4,1.5,0.6,2.2c0.5,1.4,1.2,2.8,1.8,4.1
			c0.7,1.3,1.3,2.5,1.9,3.7c0.2,0.3,0.3,0.6,0.4,0.9c0.1,0.3,0.3,0.6,0.4,0.9c0.3,0.6,0.4,1.2,0.7,1.8c0.4,1.2,0.7,2.3,0.8,3.4
			c0.1,0.6,0.1,1.1,0.2,1.6c0,0.5,0,1.1,0,1.6c0,0.5,0,1-0.1,1.5c0,0.5-0.1,0.9-0.1,1.3c-0.1,0.8-0.2,1.6-0.3,2.2
			c-0.1,0.6-0.2,1.1-0.3,1.5c-0.1,0.3-0.1,0.5-0.1,0.5s0.1-0.2,0.3-0.4c0.2-0.3,0.5-0.7,0.8-1.2c0.2-0.3,0.3-0.6,0.5-0.9
			c0.2-0.3,0.4-0.7,0.5-1.2c0.2-0.4,0.3-0.9,0.5-1.4c0.2-0.5,0.3-1,0.5-1.6c0.1-0.6,0.2-1.1,0.3-1.7c0-0.3,0.1-0.6,0.1-0.9
			c0-0.3,0.1-0.6,0.1-1c0-1.3-0.1-2.7-0.4-4.2c-0.2-0.7-0.3-1.4-0.6-2.1c-0.2-0.7-0.5-1.4-0.8-2.1c-0.6-1.4-1.2-2.7-1.9-3.9
			c-0.6-1.3-1.2-2.5-1.7-3.7c-0.5-1.2-0.9-2.3-1.1-3.5c-0.2-1.1-0.3-2.3-0.2-3.4c0-0.3,0.1-0.5,0.1-0.8c0-0.3,0.1-0.5,0.1-0.8
			c0.1-0.3,0.1-0.5,0.2-0.8c0-0.1,0.1-0.3,0.1-0.4c0-0.1,0.1-0.2,0.1-0.4c0.1-0.5,0.2-1,0.4-1.4c0.2-0.4,0.3-0.9,0.4-1.3
			c0.3-0.8,0.6-1.5,0.8-2.1c0.3-0.6,0.4-1,0.6-1.3c0.1-0.3,0.2-0.5,0.2-0.5s-0.1,0.1-0.4,0.4c-0.2,0.2-0.6,0.6-1.1,1
			c-0.4,0.5-0.9,1.1-1.5,1.8c-0.3,0.4-0.5,0.8-0.8,1.2c-0.3,0.4-0.5,0.9-0.8,1.4c-0.1,0.1-0.1,0.2-0.2,0.4c-0.1,0.1-0.1,0.3-0.2,0.4
			c-0.1,0.3-0.2,0.6-0.4,0.8c-0.1,0.3-0.2,0.6-0.3,0.9c-0.1,0.3-0.2,0.6-0.3,1c-0.3,1.3-0.5,2.8-0.4,4.3
			C66.1,37.2,66.1,37.5,66.2,37.9z"/>
		<path fill="#FFFFFF" d="M77.9,37.9c0.1,0.4,0.1,0.7,0.2,1.1c0.2,0.7,0.4,1.5,0.6,2.2c0.5,1.4,1.2,2.8,1.8,4.1
			c0.7,1.3,1.3,2.5,1.9,3.7c0.2,0.3,0.3,0.6,0.4,0.9c0.1,0.3,0.3,0.6,0.4,0.9c0.3,0.6,0.4,1.2,0.7,1.8c0.4,1.2,0.7,2.3,0.8,3.4
			c0.1,0.6,0.1,1.1,0.2,1.6c0,0.5,0,1.1,0,1.6c0,0.5,0,1-0.1,1.5c0,0.5-0.1,0.9-0.1,1.3c-0.1,0.8-0.2,1.6-0.3,2.2
			c-0.1,0.6-0.2,1.1-0.3,1.5c-0.1,0.3-0.1,0.5-0.1,0.5s0.1-0.2,0.3-0.4c0.2-0.3,0.5-0.7,0.8-1.2c0.2-0.3,0.3-0.6,0.5-0.9
			c0.2-0.3,0.4-0.7,0.5-1.2c0.2-0.4,0.3-0.9,0.5-1.4c0.2-0.5,0.3-1,0.5-1.6c0.1-0.6,0.2-1.1,0.3-1.7c0-0.3,0.1-0.6,0.1-0.9
			c0-0.3,0.1-0.6,0.1-1c0-1.3-0.1-2.7-0.4-4.2c-0.2-0.7-0.3-1.4-0.6-2.1c-0.2-0.7-0.5-1.4-0.8-2.1c-0.6-1.4-1.2-2.7-1.9-3.9
			c-0.6-1.3-1.2-2.5-1.7-3.7c-0.5-1.2-0.9-2.3-1.1-3.5c-0.2-1.1-0.3-2.3-0.2-3.4c0-0.3,0.1-0.5,0.1-0.8c0-0.3,0.1-0.5,0.1-0.8
			c0.1-0.3,0.1-0.5,0.2-0.8c0-0.1,0.1-0.3,0.1-0.4c0-0.1,0.1-0.2,0.1-0.4c0.1-0.5,0.2-1,0.4-1.4c0.2-0.4,0.3-0.9,0.4-1.3
			c0.3-0.8,0.6-1.5,0.8-2.1c0.3-0.6,0.4-1,0.6-1.3c0.1-0.3,0.2-0.5,0.2-0.5s-0.1,0.1-0.4,0.4c-0.2,0.2-0.6,0.6-1.1,1
			c-0.4,0.5-0.9,1.1-1.5,1.8c-0.3,0.4-0.5,0.8-0.8,1.2C80,28,79.8,28.5,79.5,29c-0.1,0.1-0.1,0.2-0.2,0.4c-0.1,0.1-0.1,0.3-0.2,0.4
			c-0.1,0.3-0.2,0.6-0.4,0.8c-0.1,0.3-0.2,0.6-0.3,0.9c-0.1,0.3-0.2,0.6-0.3,1c-0.3,1.3-0.5,2.8-0.4,4.3
			C77.8,37.2,77.8,37.5,77.9,37.9z"/>
	</g>
</g>
</svg>
