<?xml version="1.0" encoding="utf-8"?>
<!-- Generator: Adobe Illustrator 18.1.1, SVG Export Plug-In . SVG Version: 6.00 Build 0)  -->
<svg version="1.1" id="Layer_1" xmlns="http://www.w3.org/2000/svg" xmlns:xlink="http://www.w3.org/1999/xlink" x="0px" y="0px"
	 viewBox="0 0 144 144" enable-background="new 0 0 144 144" xml:space="preserve">
<rect fill="#DB3E3E" width="144" height="144"/>
<g>
	<g>
		<path fill="#FFFFFF" d="M95.6,46.1c-6.4-4.7-14.4-6.6-23-7v-11c0,0,0.5-1.4-3.1-1.4c-3.6,0-3.1,1.4-3.1,1.4v11.1
			c-7.7,0.6-16.1,3.8-21.2,8.5c5.7,5,18.7,0.2,18.7,0s0,14.1,6.6,20.5c5.4-5.9,4.1-20.5,4.1-20.5C74.5,47.7,89.2,52.2,95.6,46.1z"/>
		<path fill="#FFFFFF" d="M97.9,47.5l-0.4,0.4c-2.8,2.6-6.8,3.9-12.1,3.9c0,0,0,0,0,0c-2.5,0-5.2-0.3-8-0.8c0,5.1-0.6,14-4.9,18.8
			l-1.9,2.1l-2-2c-3.1-3-5.3-7.7-6.5-14c-0.3-1.8-0.6-3.4-0.7-4.7c-0.1,0-0.2,0.1-0.3,0.1c-2,0.5-5.1,1.2-8.3,1.2
			c-4,0-7.1-1-9.4-2.9L43,49.2c-3.6,3.7-5.8,8.4-5.8,14.1c0,25.4,17.8,53.1,34,53.7c16.2,0.6,34-28.6,34-53.7
			C105.3,56.7,102.4,51.4,97.9,47.5z M47.4,74.8c-0.9,0-1.7-0.7-1.7-1.7c0-1.6,1.7-4.7,1.7-4.7s1.7,3.2,1.7,4.7
			C49.1,74.1,48.4,74.8,47.4,74.8z M52.4,65.6c-0.9,0-1.7-0.7-1.7-1.7c0-1.6,1.7-4.7,1.7-4.7s1.7,3.2,1.7,4.7
			C54.1,64.8,53.4,65.6,52.4,65.6z M57.1,84.1c-0.9,0-1.7-0.7-1.7-1.7c0-1.6,1.7-4.7,1.7-4.7s1.7,3.2,1.7,4.7
			C58.8,83.3,58,84.1,57.1,84.1z M57.1,74.8c-0.9,0-1.7-0.7-1.7-1.7c0-1.6,1.7-4.7,1.7-4.7s1.7,3.2,1.7,4.7
			C58.8,74.1,58,74.8,57.1,74.8z M62.5,93.3c-0.9,0-1.7-0.7-1.7-1.7c0-1.6,1.7-4.7,1.7-4.7s1.7,3.2,1.7,4.7
			C64.2,92.6,63.4,93.3,62.5,93.3z M64.6,82.4c0-1.6,1.7-4.7,1.7-4.7s1.7,3.2,1.7,4.7c0,0.9-0.7,1.7-1.7,1.7
			C65.3,84.1,64.6,83.3,64.6,82.4z M67.4,102.6c-0.9,0-1.7-0.7-1.7-1.7c0-1.6,1.7-4.7,1.7-4.7s1.7,3.2,1.7,4.7
			C69.1,101.8,68.3,102.6,67.4,102.6z M71.4,93.3c-0.9,0-1.7-0.7-1.7-1.7c0-1.6,1.7-4.7,1.7-4.7s1.7,3.2,1.7,4.7
			C73.1,92.6,72.3,93.3,71.4,93.3z M73.7,82.4c0-1.6,1.7-4.7,1.7-4.7s1.7,3.2,1.7,4.7c0,0.9-0.7,1.7-1.7,1.7
			C74.4,84.1,73.7,83.3,73.7,82.4z M76,102.6c-0.9,0-1.7-0.7-1.7-1.7c0-1.6,1.7-4.7,1.7-4.7s1.7,3.2,1.7,4.7
			C77.7,101.8,77,102.6,76,102.6z M80.3,93.3c-0.9,0-1.7-0.7-1.7-1.7c0-1.6,1.7-4.7,1.7-4.7s1.7,3.2,1.7,4.7
			C82,92.6,81.2,93.3,80.3,93.3z M84.5,84.1c-0.9,0-1.7-0.7-1.7-1.7c0-1.6,1.7-4.7,1.7-4.7s1.7,3.2,1.7,4.7
			C86.1,83.3,85.4,84.1,84.5,84.1z M85.4,74.8c-0.9,0-1.7-0.7-1.7-1.7c0-1.6,1.7-4.7,1.7-4.7s1.7,3.2,1.7,4.7
			C87,74.1,86.3,74.8,85.4,74.8z M90.4,65.6c-0.9,0-1.7-0.7-1.7-1.7c0-1.6,1.7-4.7,1.7-4.7s1.7,3.2,1.7,4.7
			C92,64.8,91.3,65.6,90.4,65.6z M95,74.8c-0.9,0-1.7-0.7-1.7-1.7c0-1.6,1.7-4.7,1.7-4.7s1.7,3.2,1.7,4.7C96.7,74.1,96,74.8,95,74.8
			z"/>
	</g>
</g>
</svg>
