<?xml version="1.0" encoding="utf-8"?>
<!-- Generator: Adobe Illustrator 18.1.1, SVG Export Plug-In . SVG Version: 6.00 Build 0)  -->
<svg version="1.1" id="Layer_1" xmlns="http://www.w3.org/2000/svg" xmlns:xlink="http://www.w3.org/1999/xlink" x="0px" y="0px"
	 viewBox="0 0 144 144" enable-background="new 0 0 144 144" xml:space="preserve">
<rect fill="#DB3E3E" width="144" height="144"/>
<path fill="#FFFFFF" d="M101.9,87.8c0-2.4-0.3-4.7-0.8-7c-3.5-21.7-17.2-54-29-54c-12.4,0-27.1,31.7-29.5,56.3
	c-0.2,1.5-0.4,3-0.4,4.6c0,0.2,0,0.5,0,0.7c0,0.5,0,1,0,1.4c0,0,0,0,0.1,0c1.1,15.5,14,27.6,29.7,27.6c14.9,0,27.2-10.9,29.5-25.2
	c0.2-0.8,0.4-1.6,0.4-2.5c0-0.4,0-0.8,0-1.3C101.9,88.4,101.9,88.1,101.9,87.8z M84.2,95c0,0.4-0.1,0.7-0.1,1
	c-0.9,5.8-5.9,10.3-12,10.3c-6.4,0-11.7-5-12.1-11.3c0,0,0,0,0,0c0-0.2,0-0.4,0-0.6c0-0.1,0-0.2,0-0.3c0-0.6,0-1.3,0.1-1.9
	c1-10,7-23,12-23c4.8,0,10.4,13.2,11.8,22c0.2,0.9,0.3,1.9,0.3,2.8c0,0.1,0,0.2,0,0.4C84.2,94.7,84.2,94.8,84.2,95z"/>
</svg>
